<svg width="20" height="22" viewBox="0 0 20 22" fill="none" xmlns="http://www.w3.org/2000/svg">
<path d="M6.75 9.83325V11.9999H4.58333V9.83325H6.75ZM11.0833 9.83325V11.9999H8.91667V9.83325H11.0833ZM15.4167 9.83325V11.9999H13.25V9.83325H15.4167ZM17.5833 2.24992C18.158 2.24992 18.7091 2.47819 19.1154 2.88452C19.5217 3.29085 19.75 3.84195 19.75 4.41658V19.5833C19.75 20.1579 19.5217 20.709 19.1154 21.1153C18.7091 21.5216 18.158 21.7499 17.5833 21.7499H2.41667C1.21417 21.7499 0.25 20.7749 0.25 19.5833V4.41658C0.25 3.84195 0.478273 3.29085 0.884602 2.88452C1.29093 2.47819 1.84203 2.24992 2.41667 2.24992H3.5V0.083252H5.66667V2.24992H14.3333V0.083252H16.5V2.24992H17.5833ZM17.5833 19.5833V7.66658H2.41667V19.5833H17.5833ZM6.75 14.1666V16.3333H4.58333V14.1666H6.75ZM11.0833 14.1666V16.3333H8.91667V14.1666H11.0833ZM15.4167 14.1666V16.3333H13.25V14.1666H15.4167Z" fill="#585858"/>
</svg>
