<svg width="15" height="15" viewBox="0 0 15 15" fill="none" xmlns="http://www.w3.org/2000/svg">
<path d="M8.22311 0.288723L8.05828 0.272345V0.437988V0.452155V1.86882V2.0015L8.18996 2.0177C11.2171 2.39006 13.3617 5.14125 12.9894 8.16873C12.6719 10.6799 10.699 12.6719 8.19068 12.9682L8.05828 12.9838V13.1172V14.5338V14.6996L8.2232 14.6831C12.2012 14.2853 15.0948 10.7555 14.6972 6.7772C14.3714 3.34081 11.6442 0.62866 8.22311 0.288723ZM6.94161 0.459238V0.293913L6.77706 0.309945C5.36709 0.447327 4.02105 0.989762 2.92046 1.90209L2.79585 2.00539L2.90832 2.1218L3.92124 3.17013L4.01636 3.26858L4.12307 3.18283C4.89508 2.56247 5.82597 2.16242 6.81239 2.02446L6.94161 2.00639V1.8759V0.459238ZM2.12351 2.91026L2.00706 2.79381L1.90196 2.92059C0.989704 4.02109 0.447361 5.35983 0.302801 6.77651L0.285941 6.94174H0.452026H1.86869H1.99996L2.01737 6.81163C2.14848 5.83175 2.53482 4.90083 3.1482 4.12205L3.23064 4.01738L3.13643 3.92317L2.12351 2.91026ZM10.0852 4.91484L9.97911 4.80877L9.87304 4.91484L6.52244 8.26544L5.12684 6.86984L5.02078 6.76377L4.91471 6.86984L4.16388 7.62067L4.05781 7.72674L4.16388 7.8328L6.41638 10.0853L6.52244 10.1914L6.62851 10.0853L10.836 5.8778L10.9421 5.77174L10.836 5.66567L10.0852 4.91484ZM0.45911 8.0584H0.293025L0.309885 8.22363C0.454538 9.64124 1.01147 10.9793 1.9083 12.0786L2.01359 12.2077L2.13096 12.0895L3.1368 11.0766L3.22983 10.9829L3.14871 10.8787C2.54155 10.0991 2.14862 9.16805 2.02459 8.18954L2.00796 8.0584H1.87578H0.45911ZM4.12127 11.8938L4.01897 11.8141L3.92534 11.9038L2.91242 12.8743L2.79131 12.9903L2.92009 13.0977C4.01242 14.0092 5.35779 14.5806 6.77563 14.7326L6.94161 14.7503V14.5834V13.1667V13.0346L6.81047 13.0179C5.83197 12.8939 4.90092 12.501 4.12127 11.8938Z" fill="black" stroke="black" stroke-width="0.3"/>
</svg>
