<svg width="20" height="20" viewBox="0 0 20 20" fill="none" xmlns="http://www.w3.org/2000/svg">
<path d="M9.99992 0.833252C4.93075 0.833252 0.833252 4.93075 0.833252 9.99992C0.833252 15.0691 4.93075 19.1666 9.99992 19.1666C15.0691 19.1666 19.1666 15.0691 19.1666 9.99992C19.1666 4.93075 15.0691 0.833252 9.99992 0.833252ZM12.8416 5.48075C12.9699 5.48075 13.0983 5.52659 13.2083 5.62742L14.3724 6.79159C14.5833 6.99325 14.5833 7.31409 14.3724 7.50659L13.4558 8.42325L11.5766 6.54409L12.4933 5.62742C12.5849 5.52659 12.7133 5.48075 12.8416 5.48075ZM11.0358 7.07575L12.9241 8.96409L7.36909 14.5191H5.48075V12.6308L11.0358 7.07575Z" fill="#585858"/>
</svg>
